<mxfile host="65bd71144e">
    <diagram id="Ge-ZGyXBIZfhX2jXWTjr" name="Pagina-1">
        <mxGraphModel dx="1143" dy="709" grid="1" gridSize="10" guides="1" tooltips="1" connect="1" arrows="1" fold="1" page="1" pageScale="1" pageWidth="827" pageHeight="1169" math="0" shadow="0">
            <root>
                <mxCell id="0"/>
                <mxCell id="1" parent="0"/>
                <mxCell id="18" style="edgeStyle=none;html=1;" edge="1" parent="1" source="2" target="4">
                    <mxGeometry relative="1" as="geometry"/>
                </mxCell>
                <mxCell id="19" style="edgeStyle=none;html=1;" edge="1" parent="1" source="2" target="3">
                    <mxGeometry relative="1" as="geometry"/>
                </mxCell>
                <mxCell id="2" value="user" style="html=1;" vertex="1" parent="1">
                    <mxGeometry x="50" y="390" width="110" height="50" as="geometry"/>
                </mxCell>
                <mxCell id="3" value="register" style="html=1;" vertex="1" parent="1">
                    <mxGeometry x="220" y="340" width="110" height="50" as="geometry"/>
                </mxCell>
                <mxCell id="4" value="login" style="html=1;" vertex="1" parent="1">
                    <mxGeometry x="220" y="430" width="110" height="50" as="geometry"/>
                </mxCell>
                <mxCell id="16" style="edgeStyle=none;html=1;" edge="1" parent="1" source="5" target="6">
                    <mxGeometry relative="1" as="geometry"/>
                </mxCell>
                <mxCell id="17" style="edgeStyle=none;html=1;" edge="1" parent="1" source="5" target="7">
                    <mxGeometry relative="1" as="geometry"/>
                </mxCell>
                <mxCell id="5" value="tournament" style="html=1;" vertex="1" parent="1">
                    <mxGeometry x="50" y="560" width="110" height="50" as="geometry"/>
                </mxCell>
                <mxCell id="6" value="create_t" style="html=1;" vertex="1" parent="1">
                    <mxGeometry x="220" y="510" width="110" height="50" as="geometry"/>
                </mxCell>
                <mxCell id="12" style="edgeStyle=none;html=1;entryX=0;entryY=0.75;entryDx=0;entryDy=0;exitX=1;exitY=0.25;exitDx=0;exitDy=0;" edge="1" parent="1" source="57" target="11">
                    <mxGeometry relative="1" as="geometry"/>
                </mxCell>
                <mxCell id="13" value="" style="edgeStyle=none;html=1;entryX=0;entryY=0.5;entryDx=0;entryDy=0;exitX=1;exitY=0.5;exitDx=0;exitDy=0;" edge="1" parent="1" source="57" target="9">
                    <mxGeometry relative="1" as="geometry"/>
                </mxCell>
                <mxCell id="14" value="" style="edgeStyle=none;html=1;" edge="1" parent="1" source="7" target="8">
                    <mxGeometry relative="1" as="geometry">
                        <Array as="points"/>
                    </mxGeometry>
                </mxCell>
                <mxCell id="15" style="edgeStyle=none;html=1;exitX=1;exitY=0.75;exitDx=0;exitDy=0;entryX=0;entryY=0.5;entryDx=0;entryDy=0;" edge="1" parent="1" source="57" target="62">
                    <mxGeometry relative="1" as="geometry"/>
                </mxCell>
                <mxCell id="21" style="edgeStyle=none;html=1;exitX=1;exitY=0;exitDx=0;exitDy=0;entryX=0;entryY=0.5;entryDx=0;entryDy=0;" edge="1" parent="1" source="57" target="20">
                    <mxGeometry relative="1" as="geometry"/>
                </mxCell>
                <mxCell id="7" value="idT" style="html=1;" vertex="1" parent="1">
                    <mxGeometry x="220" y="620" width="110" height="50" as="geometry"/>
                </mxCell>
                <mxCell id="8" value="close" style="html=1;" vertex="1" parent="1">
                    <mxGeometry x="390" y="600" width="110" height="50" as="geometry"/>
                </mxCell>
                <mxCell id="9" value="subscribe" style="html=1;" vertex="1" parent="1">
                    <mxGeometry x="390" y="670" width="110" height="50" as="geometry"/>
                </mxCell>
                <mxCell id="10" value="lbt" style="html=1;" vertex="1" parent="1">
                    <mxGeometry x="390" y="740" width="110" height="50" as="geometry"/>
                </mxCell>
                <mxCell id="11" value="addCollaborator" style="html=1;" vertex="1" parent="1">
                    <mxGeometry x="390" y="535" width="110" height="50" as="geometry"/>
                </mxCell>
                <mxCell id="29" style="edgeStyle=none;html=1;exitX=1;exitY=0.75;exitDx=0;exitDy=0;entryX=0;entryY=0.5;entryDx=0;entryDy=0;" edge="1" parent="1" source="60" target="22">
                    <mxGeometry relative="1" as="geometry"/>
                </mxCell>
                <mxCell id="30" style="edgeStyle=none;html=1;exitX=1;exitY=0.5;exitDx=0;exitDy=0;" edge="1" parent="1" source="60" target="23">
                    <mxGeometry relative="1" as="geometry"/>
                </mxCell>
                <mxCell id="20" value="battle" style="html=1;" vertex="1" parent="1">
                    <mxGeometry x="390" y="440" width="110" height="50" as="geometry"/>
                </mxCell>
                <mxCell id="31" style="edgeStyle=none;html=1;exitX=1;exitY=0.5;exitDx=0;exitDy=0;entryX=0;entryY=0.5;entryDx=0;entryDy=0;" edge="1" parent="1" source="22" target="28">
                    <mxGeometry relative="1" as="geometry"/>
                </mxCell>
                <mxCell id="32" style="edgeStyle=none;html=1;exitX=1;exitY=0.5;exitDx=0;exitDy=0;entryX=0;entryY=0.5;entryDx=0;entryDy=0;" edge="1" parent="1" source="22" target="25">
                    <mxGeometry relative="1" as="geometry"/>
                </mxCell>
                <mxCell id="33" style="edgeStyle=none;html=1;exitX=1;exitY=0.5;exitDx=0;exitDy=0;entryX=0;entryY=0.5;entryDx=0;entryDy=0;" edge="1" parent="1" source="63" target="26">
                    <mxGeometry relative="1" as="geometry"/>
                </mxCell>
                <mxCell id="34" style="edgeStyle=none;html=1;entryX=0;entryY=0.5;entryDx=0;entryDy=0;" edge="1" parent="1" target="27">
                    <mxGeometry relative="1" as="geometry">
                        <mxPoint x="650" y="510" as="sourcePoint"/>
                    </mxGeometry>
                </mxCell>
                <mxCell id="36" style="edgeStyle=none;html=1;exitX=1;exitY=0.75;exitDx=0;exitDy=0;entryX=0;entryY=0.75;entryDx=0;entryDy=0;" edge="1" parent="1" source="63" target="35">
                    <mxGeometry relative="1" as="geometry"/>
                </mxCell>
                <mxCell id="38" style="edgeStyle=none;html=1;exitX=1;exitY=0.75;exitDx=0;exitDy=0;entryX=0;entryY=0.75;entryDx=0;entryDy=0;" edge="1" parent="1" source="63" target="37">
                    <mxGeometry relative="1" as="geometry"/>
                </mxCell>
                <mxCell id="22" value="idB" style="html=1;" vertex="1" parent="1">
                    <mxGeometry x="540" y="480" width="110" height="50" as="geometry"/>
                </mxCell>
                <mxCell id="23" value="create_b" style="html=1;" vertex="1" parent="1">
                    <mxGeometry x="540" y="410" width="110" height="50" as="geometry"/>
                </mxCell>
                <mxCell id="25" value="assignment" style="html=1;fontSize=19;" vertex="1" parent="1">
                    <mxGeometry x="700" y="450" width="110" height="50" as="geometry"/>
                </mxCell>
                <mxCell id="26" value="deadlines" style="html=1;fontSize=19;" vertex="1" parent="1">
                    <mxGeometry x="700" y="520" width="110" height="50" as="geometry"/>
                </mxCell>
                <mxCell id="27" value="join" style="html=1;fontSize=19;" vertex="1" parent="1">
                    <mxGeometry x="700" y="590" width="110" height="50" as="geometry"/>
                </mxCell>
                <mxCell id="28" value="rules" style="html=1;fontSize=19;" vertex="1" parent="1">
                    <mxGeometry x="700" y="380" width="110" height="50" as="geometry"/>
                </mxCell>
                <mxCell id="35" value="lbb" style="html=1;fontSize=19;" vertex="1" parent="1">
                    <mxGeometry x="700" y="660" width="110" height="50" as="geometry"/>
                </mxCell>
                <mxCell id="40" style="edgeStyle=none;html=1;exitX=1;exitY=0.5;exitDx=0;exitDy=0;entryX=0;entryY=0.5;entryDx=0;entryDy=0;" edge="1" parent="1" source="37" target="39">
                    <mxGeometry relative="1" as="geometry"/>
                </mxCell>
                <mxCell id="37" value="evalSource" style="html=1;fontSize=19;" vertex="1" parent="1">
                    <mxGeometry x="700" y="740" width="110" height="50" as="geometry"/>
                </mxCell>
                <mxCell id="39" value="score" style="html=1;fontSize=19;" vertex="1" parent="1">
                    <mxGeometry x="847" y="740" width="110" height="50" as="geometry"/>
                </mxCell>
                <mxCell id="41" value="user" style="html=1;" vertex="1" parent="1">
                    <mxGeometry x="50" y="390" width="110" height="50" as="geometry"/>
                </mxCell>
                <mxCell id="42" value="register" style="html=1;" vertex="1" parent="1">
                    <mxGeometry x="220" y="340" width="110" height="50" as="geometry"/>
                </mxCell>
                <mxCell id="43" value="login" style="html=1;" vertex="1" parent="1">
                    <mxGeometry x="220" y="430" width="110" height="50" as="geometry"/>
                </mxCell>
                <mxCell id="44" value="create_t" style="html=1;" vertex="1" parent="1">
                    <mxGeometry x="220" y="510" width="110" height="50" as="geometry"/>
                </mxCell>
                <mxCell id="45" value="tournament" style="html=1;" vertex="1" parent="1">
                    <mxGeometry x="50" y="560" width="110" height="50" as="geometry"/>
                </mxCell>
                <mxCell id="46" value="idT" style="html=1;" vertex="1" parent="1">
                    <mxGeometry x="220" y="620" width="110" height="50" as="geometry"/>
                </mxCell>
                <mxCell id="47" value="close" style="html=1;" vertex="1" parent="1">
                    <mxGeometry x="390" y="600" width="110" height="50" as="geometry"/>
                </mxCell>
                <mxCell id="48" value="addCollaborator" style="html=1;" vertex="1" parent="1">
                    <mxGeometry x="390" y="535" width="110" height="50" as="geometry"/>
                </mxCell>
                <mxCell id="49" value="battle" style="html=1;" vertex="1" parent="1">
                    <mxGeometry x="390" y="440" width="110" height="50" as="geometry"/>
                </mxCell>
                <mxCell id="50" value="subscribe" style="html=1;" vertex="1" parent="1">
                    <mxGeometry x="390" y="670" width="110" height="50" as="geometry"/>
                </mxCell>
                <mxCell id="51" value="lbt" style="html=1;" vertex="1" parent="1">
                    <mxGeometry x="390" y="740" width="110" height="50" as="geometry"/>
                </mxCell>
                <mxCell id="52" value="user" style="html=1;fontSize=19;" vertex="1" parent="1">
                    <mxGeometry x="50" y="390" width="110" height="50" as="geometry"/>
                </mxCell>
                <mxCell id="53" value="register" style="html=1;fontSize=19;" vertex="1" parent="1">
                    <mxGeometry x="220" y="340" width="110" height="50" as="geometry"/>
                </mxCell>
                <mxCell id="54" value="login" style="html=1;fontSize=19;" vertex="1" parent="1">
                    <mxGeometry x="220" y="430" width="110" height="50" as="geometry"/>
                </mxCell>
                <mxCell id="55" value="create_t" style="html=1;fontSize=19;" vertex="1" parent="1">
                    <mxGeometry x="220" y="510" width="110" height="50" as="geometry"/>
                </mxCell>
                <mxCell id="56" value="tournament" style="html=1;fontSize=19;" vertex="1" parent="1">
                    <mxGeometry x="50" y="560" width="110" height="50" as="geometry"/>
                </mxCell>
                <mxCell id="57" value="idT" style="html=1;fontSize=19;" vertex="1" parent="1">
                    <mxGeometry x="220" y="620" width="110" height="50" as="geometry"/>
                </mxCell>
                <mxCell id="58" value="close" style="html=1;fontSize=19;" vertex="1" parent="1">
                    <mxGeometry x="390" y="600" width="110" height="50" as="geometry"/>
                </mxCell>
                <mxCell id="59" value="addCollaborator" style="html=1;fontSize=19;" vertex="1" parent="1">
                    <mxGeometry x="390" y="535" width="140" height="50" as="geometry"/>
                </mxCell>
                <mxCell id="60" value="battle" style="html=1;fontSize=19;" vertex="1" parent="1">
                    <mxGeometry x="390" y="440" width="110" height="50" as="geometry"/>
                </mxCell>
                <mxCell id="61" value="subscribe" style="html=1;fontSize=19;" vertex="1" parent="1">
                    <mxGeometry x="390" y="670" width="110" height="50" as="geometry"/>
                </mxCell>
                <mxCell id="62" value="lbt" style="html=1;fontSize=19;" vertex="1" parent="1">
                    <mxGeometry x="390" y="740" width="110" height="50" as="geometry"/>
                </mxCell>
                <mxCell id="63" value="idB" style="html=1;fontSize=19;" vertex="1" parent="1">
                    <mxGeometry x="540" y="480" width="110" height="50" as="geometry"/>
                </mxCell>
                <mxCell id="64" value="create_b" style="html=1;fontSize=19;" vertex="1" parent="1">
                    <mxGeometry x="540" y="410" width="110" height="50" as="geometry"/>
                </mxCell>
            </root>
        </mxGraphModel>
    </diagram>
</mxfile>